<svg width="19" height="20" viewBox="0 0 19 20" fill="none" xmlns="http://www.w3.org/2000/svg">
<path d="M4.89844 13.0255L12.4601 5.46387L13.9279 6.93171L6.36628 14.4933L4.89844 13.0255Z" fill="#A97241"/>
<path d="M17.3008 2.13632C16.2942 1.1297 14.9101 0.563477 13.526 0.563477C12.1419 0.563477 10.7578 1.1297 9.75116 2.13632L6.60547 5.28202L8.1154 6.79195L11.2611 3.64626C11.8902 3.01712 12.7081 2.70255 13.5889 2.70255C14.4697 2.70255 15.2876 3.01712 15.9167 3.64626C16.5459 4.2754 16.8604 5.09328 16.8604 5.97407C16.8604 6.85487 16.5459 7.67275 15.9167 8.30189L12.771 11.4476L14.281 12.9575L17.4267 9.81182C18.4333 8.8052 18.9995 7.42109 18.9995 6.03698C18.8737 4.52705 18.3075 3.14295 17.3008 2.13632Z" fill="#A97241"/>
<path d="M7.6755 16.3542C7.04636 16.9834 6.22848 17.2979 5.34768 17.2979C4.46689 17.2979 3.64901 16.9834 3.01987 16.3542C2.39073 15.7251 2.07616 14.9072 2.07616 14.0264C2.07616 13.1456 2.39073 12.3277 3.01987 11.6986L6.16556 8.5529L4.65563 7.04297L1.50993 10.1887C0.566225 11.2582 0 12.6423 0 14.0893C0 15.5363 0.566225 16.8575 1.57285 17.8642C2.57947 18.8708 3.96358 19.437 5.34768 19.437C6.73179 19.437 8.11589 18.8708 9.12252 17.8642L12.2682 14.7185L10.7583 13.2085L7.6755 16.3542Z" fill="#A97241"/>
</svg>
