<svg width="18" height="18" viewBox="0 0 18 18" fill="none" xmlns="http://www.w3.org/2000/svg">
<path fill-rule="evenodd" clip-rule="evenodd" d="M2.81432 2.4745L2.80255 2.48567L2.80254 2.48567C2.74673 2.53861 2.69092 2.59155 2.63645 2.64613C2.58868 2.69401 2.54209 2.74322 2.49548 2.79245L2.49547 2.79246L2.47583 2.8132C2.436 2.85524 2.39651 2.89765 2.35736 2.94043C2.39045 4.52301 2.84237 6.06858 3.66712 7.41987C4.49187 8.77116 5.66003 9.87995 7.05271 10.6334C8.45542 9.87386 9.62858 8.75207 10.4499 7.38501C10.3117 7.217 10.2234 7.01367 10.195 6.79807C10.1666 6.58246 10.1991 6.36321 10.2889 6.16514C10.3788 5.96708 10.5223 5.79813 10.7033 5.67743C10.8843 5.55674 11.0954 5.48913 11.3129 5.48227C11.6024 4.59633 11.7502 3.67029 11.751 2.7383C11.7518 1.92525 11.642 1.11586 11.4247 0.332358C11.3418 0.309239 11.2585 0.287264 11.175 0.266435L11.1139 0.25114L11.1139 0.251136C11.0473 0.234391 10.9806 0.217647 10.9134 0.203143C10.7876 0.176008 10.6606 0.15425 10.5336 0.132586C10.5062 0.127921 10.479 0.123003 10.4517 0.118086C10.3971 0.108251 10.3425 0.0984162 10.2875 0.0905973C10.1454 0.0704167 10.0022 0.0567754 9.85896 0.0433764C9.83134 0.0407925 9.8038 0.0376984 9.77626 0.0346045C9.73507 0.0299763 9.69387 0.0253484 9.65241 0.0224285C9.43939 0.00742898 9.22541 -0.000976562 9.01055 -0.000976562C8.85079 -0.000976562 8.69156 0.00329022 8.53285 0.0118237C8.50062 0.013542 8.46855 0.016371 8.43649 0.0192001C8.41415 0.021171 8.39181 0.0231419 8.36941 0.0247374L8.32198 0.0280926C8.23378 0.0342964 8.14559 0.0405 8.05793 0.0498409C8.0207 0.0538085 7.98373 0.0590054 7.94675 0.0642024C7.92362 0.0674528 7.9005 0.0707033 7.87731 0.0736531L7.82125 0.0806992C7.74327 0.0904495 7.66528 0.1002 7.58785 0.11261C7.5465 0.119234 7.50545 0.127189 7.46441 0.135142C7.44108 0.139663 7.41775 0.144183 7.39437 0.148459L7.33281 0.159594L7.3328 0.159595C7.26302 0.172145 7.19327 0.18469 7.12406 0.199546C7.07991 0.209 7.03617 0.219856 6.99243 0.230713C6.96954 0.236393 6.94665 0.242074 6.9237 0.247554L6.86294 0.261924L6.86293 0.261927C6.79696 0.277456 6.73102 0.292981 6.66568 0.310632C6.62102 0.322678 6.57683 0.336097 6.53263 0.349518L6.53262 0.34952L6.53261 0.349525C6.51057 0.356218 6.48852 0.362912 6.46642 0.369436L6.41066 0.385779L6.41065 0.385782C6.34521 0.404905 6.27978 0.424027 6.21502 0.445173C6.17027 0.459816 6.126 0.475768 6.08173 0.491721C6.06021 0.499474 6.0387 0.507226 6.01713 0.514829L5.96516 0.533067C5.9006 0.555665 5.83606 0.578258 5.77228 0.602877C5.72698 0.620349 5.68222 0.639146 5.63747 0.657942L5.63744 0.657953L5.57675 0.683298L5.52693 0.703788C5.46399 0.729617 5.40105 0.755449 5.33895 0.783208C5.29329 0.803614 5.24823 0.825327 5.20316 0.847041L5.20316 0.847045L5.14574 0.87459L5.09951 0.896511L5.09951 0.896514C5.03789 0.925688 4.97626 0.954864 4.91554 0.985891C4.86948 1.00941 4.8241 1.03423 4.77871 1.05905L4.72553 1.08803L4.68268 1.11119C4.62252 1.14366 4.56237 1.17613 4.50315 1.21036C4.45649 1.23736 4.41056 1.26564 4.36463 1.29392L4.31711 1.32312L4.28318 1.34382C4.22254 1.38079 4.16192 1.41774 4.10229 1.45649C4.05597 1.48661 4.01044 1.518 3.96491 1.54939L3.96491 1.54939L3.92122 1.57945L3.8936 1.59835C3.83352 1.63946 3.77345 1.68056 3.71448 1.72343C3.66787 1.75734 3.62213 1.79251 3.57639 1.82768L3.57638 1.82768L3.53781 1.8573L3.51307 1.87622C3.45504 1.92061 3.39702 1.96498 3.34018 2.01107C3.29335 2.04904 3.24745 2.08831 3.20156 2.12757L3.20154 2.12758L3.16888 2.1555L3.15155 2.17026L3.15154 2.17028C3.09403 2.21929 3.03654 2.26829 2.98032 2.31899C2.93364 2.3611 2.88799 2.40449 2.84235 2.44788L2.84235 2.44788L2.81432 2.4745ZM0.0234148 9.63967C0.00840906 9.42674 0 9.21285 0 8.99808C0.0017228 7.15226 0.572035 5.35175 1.63341 3.8413C1.7968 5.30965 2.29259 6.72152 3.08319 7.9698C3.87378 9.21808 4.9384 10.27 6.19629 11.0457C5.66168 11.2683 5.106 11.4364 4.53767 11.5475C4.42783 11.3529 4.26436 11.194 4.06673 11.0897C3.86909 10.9853 3.64563 10.9399 3.42293 10.9589C3.20023 10.9779 2.98768 11.0605 2.81059 11.1968C2.6335 11.3331 2.49933 11.5174 2.42405 11.7277C1.71727 11.7041 1.01568 11.5979 0.33358 11.4113C0.310013 11.3275 0.287775 11.2434 0.266867 11.1589L0.250841 11.0948C0.234605 11.0303 0.218371 10.9657 0.20431 10.9007C0.177059 10.7744 0.155218 10.6469 0.133451 10.5195C0.128783 10.4921 0.123857 10.4648 0.118932 10.4375L0.11893 10.4375C0.109159 10.3833 0.0993893 10.3291 0.0916358 10.2745C0.0714193 10.1325 0.0577761 9.98922 0.044348 9.84596C0.0417656 9.81838 0.0386757 9.79089 0.035586 9.76339C0.0309612 9.72224 0.0263368 9.68109 0.0234148 9.63967ZM12.071 12.493L12.4947 13.5519C12.5241 13.6256 12.5305 13.7065 12.5129 13.7838C12.4953 13.8612 12.4545 13.9314 12.3961 13.9851C12.3377 14.0388 12.2643 14.0735 12.1857 14.0846C12.1071 14.0957 12.027 14.0826 11.956 14.0471L10.5652 13.352L9.1743 14.0471C9.1033 14.0826 9.02318 14.0957 8.94457 14.0846C8.86596 14.0736 8.79257 14.0389 8.73414 13.9851C8.67571 13.9314 8.635 13.8612 8.6174 13.7838C8.59981 13.7065 8.60616 13.6256 8.63561 13.5519L9.14959 12.2675C8.41979 12.1009 7.71231 11.8485 7.04196 11.5155C6.29175 11.8875 5.49538 12.158 4.67379 12.32C4.63299 12.578 4.50681 12.815 4.31544 12.9929C4.12406 13.1708 3.87854 13.2795 3.6181 13.3015C3.35767 13.3236 3.09736 13.2577 2.87878 13.1145C2.66021 12.9712 2.49598 12.7589 2.41236 12.5113C1.80875 12.4938 1.20808 12.4204 0.618021 12.292C1.35479 14.1668 2.69941 15.7404 4.4367 16.7609C6.17399 17.7814 8.20354 18.19 10.2006 17.9211C12.1977 17.6523 14.0468 16.7216 15.4521 15.2781C16.8574 13.8345 17.7376 11.9614 17.952 9.9586C16.3313 11.4385 14.2601 12.3311 12.071 12.493ZM3.52229 12.5212C3.58786 12.5197 3.65193 12.5013 3.70828 12.4677C3.76976 12.435 3.82129 12.3864 3.85745 12.3269C3.89361 12.2675 3.91307 12.1993 3.91378 12.1297C3.91438 12.058 3.89528 11.9875 3.85855 11.9259C3.82182 11.8643 3.76888 11.814 3.70551 11.7805C3.64213 11.7469 3.57076 11.7314 3.49917 11.7356C3.42758 11.7399 3.35854 11.7637 3.29956 11.8045C3.24059 11.8453 3.19396 11.9015 3.16475 11.967C3.13555 12.0325 3.12489 12.1047 3.13395 12.1759C3.14301 12.247 3.17143 12.3143 3.21612 12.3704C3.2608 12.4265 3.32004 12.4692 3.38735 12.4939C3.43033 12.511 3.47604 12.5203 3.52229 12.5212ZM11.5477 6.98177C11.6057 6.94832 11.6541 6.90034 11.6879 6.84254C11.7218 6.78474 11.74 6.71912 11.7408 6.65214C11.7384 6.62981 11.7339 6.60775 11.7275 6.58624C11.7131 6.49603 11.6672 6.41384 11.598 6.35424C11.5288 6.29463 11.4407 6.26148 11.3493 6.26065C11.2455 6.26065 11.1459 6.3019 11.0725 6.37531C10.9991 6.44873 10.9578 6.54831 10.9578 6.65214C10.9578 6.75597 10.9991 6.85555 11.0725 6.92896C11.1459 7.00238 11.2455 7.04363 11.3493 7.04363C11.4199 7.04182 11.4886 7.0204 11.5477 6.98177ZM10.7392 12.5645C10.6848 12.5373 10.6248 12.5232 10.5641 12.5232C10.5033 12.5232 10.4433 12.5373 10.389 12.5645L10.0621 12.7279L9.74401 12.887L9.88962 12.5231L9.93425 12.4115L10.2341 11.6621L10.3454 11.384L10.5139 10.963L10.5641 10.8375L10.6143 10.963L10.7827 11.384L10.9181 11.7224L11.2367 12.5185L11.2385 12.5231L11.3841 12.887L11.066 12.7279L10.7392 12.5645ZM14.3596 1.75776C14.388 1.7799 14.4164 1.80204 14.4452 1.82373C14.4712 1.84326 14.4972 1.86267 14.5232 1.88208C14.6063 1.94402 14.6894 2.00595 14.769 2.07176C14.8203 2.1142 14.8693 2.15894 14.9183 2.20368C14.9448 2.22784 14.9713 2.25201 14.9981 2.27581C15.0227 2.29764 15.0475 2.31934 15.0722 2.34103C15.1463 2.40608 15.2204 2.47111 15.2911 2.53956C15.3403 2.5872 15.3871 2.63705 15.4338 2.6869C15.4581 2.71276 15.4823 2.73862 15.507 2.76418C15.5293 2.78742 15.5518 2.81055 15.5743 2.83367C15.642 2.90323 15.7097 2.97278 15.7738 3.04547C15.82 3.09778 15.8636 3.15218 15.9072 3.20657C15.9291 3.23396 15.9511 3.26135 15.9734 3.28848C15.9933 3.31276 16.0134 3.33694 16.0335 3.36112C16.095 3.43522 16.1565 3.50932 16.2143 3.58625C16.2579 3.6442 16.2988 3.70412 16.3396 3.76404C16.359 3.79244 16.3783 3.82084 16.398 3.84903C16.4157 3.87446 16.4336 3.89979 16.4514 3.92512C16.5059 4.00244 16.5604 4.07975 16.6112 4.15963C16.6511 4.22238 16.6882 4.28696 16.7252 4.35155C16.742 4.38081 16.7588 4.41008 16.7759 4.43917C16.7912 4.46529 16.8066 4.49132 16.822 4.51736C16.8702 4.59869 16.9184 4.68002 16.9629 4.76364C16.9983 4.83023 17.0307 4.89849 17.0631 4.96677C17.0773 4.99683 17.0916 5.02689 17.1061 5.05681C17.1189 5.08323 17.1319 5.10959 17.1448 5.13596C17.1868 5.22164 17.2289 5.30732 17.267 5.39508C17.2977 5.46569 17.3253 5.53781 17.3528 5.60993C17.3645 5.64048 17.3762 5.67102 17.3881 5.70145C17.3984 5.72782 17.4089 5.75414 17.4193 5.78046C17.4548 5.87026 17.4904 5.96007 17.5219 6.05177C17.5474 6.12583 17.5696 6.20125 17.5919 6.27668C17.601 6.3076 17.6101 6.33852 17.6195 6.36936C17.6275 6.39592 17.6357 6.42244 17.6438 6.44896C17.6725 6.54246 17.7012 6.63596 17.7257 6.73111C17.7457 6.80889 17.7624 6.88787 17.7791 6.96686C17.7856 6.99757 17.7921 7.02827 17.7987 7.05891C17.8043 7.08457 17.81 7.1102 17.8157 7.13584C17.8374 7.23352 17.859 7.3312 17.8763 7.43036C17.8904 7.51106 17.901 7.59281 17.9117 7.67457C17.9156 7.70523 17.9196 7.7359 17.9238 7.76651C17.9271 7.79097 17.9305 7.81541 17.9339 7.83985C17.9482 7.94203 17.9624 8.04419 17.972 8.14764C17.9798 8.23057 17.984 8.31438 17.9882 8.3982C17.9897 8.42887 17.9913 8.45954 17.993 8.49017C17.9936 8.50029 17.9941 8.5104 17.9947 8.52052C18.0001 8.61609 18.0055 8.71162 18.0075 8.80795C16.3993 10.5681 14.1583 11.6188 11.7761 11.7298L10.9394 9.6389C10.9103 9.56625 10.8602 9.50398 10.7954 9.46011C10.7305 9.41624 10.6541 9.3928 10.5758 9.3928C10.4975 9.3928 10.4211 9.41624 10.3563 9.46011C10.2914 9.50398 10.2413 9.56625 10.2122 9.6389L9.45563 11.5296C8.92469 11.4189 8.40542 11.2582 7.90475 11.0498C9.21796 10.2378 10.318 9.12385 11.1131 7.80074C11.3748 7.85765 11.6481 7.82317 11.8875 7.70306C12.1268 7.58294 12.3177 7.38444 12.4283 7.14066C12.539 6.89689 12.5627 6.62256 12.4955 6.36343C12.4283 6.1043 12.2743 5.87603 12.0591 5.71667C12.3723 4.75551 12.5323 3.7511 12.5332 2.74025C12.5333 2.02806 12.4558 1.31798 12.3019 0.622595C12.3045 0.623628 12.3072 0.624517 12.31 0.625406C12.3128 0.626327 12.3156 0.627248 12.3184 0.628329C12.36 0.644678 12.4004 0.663072 12.4408 0.681469C12.4699 0.694759 12.4991 0.70805 12.5288 0.720572C12.5468 0.728185 12.5648 0.735781 12.5829 0.743377C12.7172 0.79991 12.8515 0.856437 12.9813 0.919791C13.031 0.944025 13.0791 0.970622 13.1271 0.997223C13.158 1.01433 13.1889 1.03143 13.2203 1.04791C13.247 1.06193 13.2737 1.07587 13.3005 1.08981C13.4056 1.14465 13.5108 1.19948 13.6123 1.25938C13.6633 1.28949 13.7125 1.32195 13.7616 1.35442C13.7915 1.37419 13.8215 1.39396 13.8518 1.4132C13.8787 1.43027 13.9058 1.44723 13.9328 1.46419C14.026 1.52272 14.1192 1.58124 14.2088 1.64419C14.2604 1.68047 14.31 1.71911 14.3596 1.75776Z" fill="#A97241"/>
</svg>
