<svg width="22" height="22" viewBox="0 0 22 22" fill="none" xmlns="http://www.w3.org/2000/svg">
<path fill-rule="evenodd" clip-rule="evenodd" d="M11 0C8.82441 0 6.69767 0.645139 4.88873 1.85383C3.07979 3.06253 1.66989 4.78049 0.83733 6.79048C0.00476614 8.80047 -0.213071 11.0122 0.211367 13.146C0.635804 15.2798 1.68345 17.2398 3.22183 18.7782C4.76021 20.3165 6.72022 21.3642 8.85401 21.7886C10.9878 22.2131 13.1995 21.9952 15.2095 21.1627C17.2195 20.3301 18.9375 18.9202 20.1462 17.1113C21.3549 15.3023 22 13.1756 22 11C21.9967 8.08362 20.8368 5.28762 18.7746 3.22543C16.7124 1.16324 13.9164 0.00326474 11 0ZM11 20.0444C9.21118 20.0444 7.46253 19.514 5.97518 18.5202C4.48783 17.5264 3.32858 16.1138 2.64403 14.4612C1.95947 12.8085 1.78036 10.99 2.12935 9.23551C2.47833 7.48106 3.33973 5.8695 4.60462 4.60461C5.8695 3.33972 7.48107 2.47832 9.23552 2.12934C10.99 1.78036 12.8085 1.95947 14.4612 2.64402C16.1138 3.32857 17.5264 4.48782 18.5202 5.97517C19.514 7.46253 20.0444 9.21118 20.0444 11C20.0418 13.3979 19.088 15.6968 17.3924 17.3924C15.6969 19.088 13.3979 20.0418 11 20.0444ZM11.9776 8.87806H10.0221V16.9707H11.9776V8.87806ZM10.0221 5.02925H11.9776V6.98481H10.0221V5.02925Z" fill="#D81C1F"/>
</svg>
