<svg width="116" height="26" viewBox="0 0 116 26" fill="none" xmlns="http://www.w3.org/2000/svg">
<g clip-path="url(#clip0_5255_29671)">
<path d="M2.80021 1.0625H0.449219V14.8016H9.8485V13.911H2.80021V1.0625Z" fill="#1B5242"/>
<path d="M29.7735 9.82378C29.7779 10.3882 29.6757 10.9485 29.4721 11.4763C29.2789 11.985 28.981 12.4491 28.597 12.8397C28.213 13.2302 27.7511 13.5388 27.2403 13.7463C26.0832 14.1945 24.7961 14.1945 23.639 13.7463C23.1284 13.5387 22.6662 13.2312 22.2804 12.8426C21.8947 12.4539 21.5937 11.9922 21.3955 11.4855C21.1881 10.9586 21.0843 10.3978 21.0894 9.83295V0.902344H18.7267V9.7618C18.7218 10.4539 18.8528 11.1404 19.1123 11.7839C19.3644 12.4103 19.7529 12.9751 20.2504 13.4387C20.7907 13.9299 21.4267 14.3085 22.12 14.5519C22.945 14.8384 23.8157 14.9768 24.6906 14.9604C25.6346 14.9809 26.5751 14.8427 27.4716 14.5519C28.1786 14.3175 28.8275 13.9398 29.3763 13.4433C29.8643 12.9901 30.238 12.4313 30.4676 11.8114C30.703 11.1736 30.8209 10.4998 30.8158 9.82148V0.902344H29.7829V9.82378H29.7735Z" fill="#1B5242"/>
<path d="M67.9453 0.90625L61.2031 14.9575H62.3856L64.5894 10.3671H70.5931L72.7197 14.9575H75.1174L68.5319 0.90625H67.9453ZM64.9984 9.4857L67.6158 4.04609L70.156 9.4857H64.9984Z" fill="#1B5242"/>
<path d="M92.2357 7.62673C92.6368 7.42749 93.0023 7.16547 93.3177 6.85095C93.6137 6.55948 93.8515 6.21618 94.0188 5.83877C94.1869 5.46037 94.2714 5.05121 94.2665 4.63837C94.2714 4.14235 94.1611 3.65176 93.944 3.20387C93.7222 2.7564 93.3954 2.36701 92.9905 2.06775C92.5153 1.72508 91.9786 1.47357 91.4084 1.3264C90.6887 1.14006 89.9465 1.05126 89.2023 1.06247H84.3438V14.8015H86.6971V8.34742H88.3446L93.2102 14.8015H95.9445L90.8499 8.14544C91.3315 8.02817 91.7968 7.85399 92.2357 7.62673ZM89.5201 7.44769C89.0469 7.5894 88.5543 7.65907 88.0595 7.65427H86.6971V1.91627H88.7653C89.1709 1.9119 89.5737 1.98275 89.9525 2.12513C90.2994 2.25421 90.6171 2.44919 90.8873 2.69893C91.1535 2.94785 91.3623 3.24997 91.4995 3.58489C91.6474 3.94979 91.7205 4.33978 91.7146 4.73248C91.7227 5.14229 91.6328 5.54825 91.4522 5.91777C91.2716 6.28728 91.0053 6.61003 90.6746 6.86012C90.3248 7.12424 89.9288 7.32337 89.5061 7.44769H89.5201Z" fill="#1B5242"/>
<path d="M115.058 1.95304V1.0625H105.332V14.8016H115.058V13.911H107.685V7.75759H112.623V6.86476H107.685V1.95304H115.058Z" fill="#1B5242"/>
<path d="M48.0759 7.76925L54.2455 0L46.3325 6.05932L38.4219 0L44.5938 7.76925L38.4219 15.5385L46.3325 9.47917L54.2455 15.5385L48.0759 7.76925Z" fill="#B67C3C"/>
<path d="M47.2949 8.70864L53.2262 7.98794L47.2949 7.26725L46.5611 1.44434L45.8297 7.26725L39.8984 7.98794L45.8297 8.70864L46.5611 14.5316L47.2949 8.70864Z" fill="#B67C3C"/>
<path d="M0.000498662 25.8465V21.7151C-0.000588284 21.7069 0.000214657 21.6986 0.00284861 21.6907C0.00548256 21.6829 0.00987962 21.6757 0.0157145 21.6698C0.0215493 21.6638 0.0286735 21.6592 0.0365573 21.6564C0.0444412 21.6535 0.0528856 21.6524 0.0612621 21.6531H1.69714C2.10351 21.6277 2.50723 21.7333 2.84693 21.9538C2.97759 22.0551 3.08164 22.1858 3.15035 22.3347C3.21907 22.4837 3.25045 22.6466 3.24187 22.8099C3.24492 23.0154 3.17924 23.2162 3.05492 23.3814C2.91853 23.5577 2.7203 23.678 2.49872 23.7188C2.78287 23.7472 3.04769 23.8732 3.24654 24.0746C3.40255 24.254 3.48575 24.4836 3.48024 24.7195C3.48981 24.8857 3.45923 25.0518 3.39099 25.2041C3.32276 25.3565 3.21882 25.4909 3.08763 25.5963C2.74942 25.8223 2.34356 25.9298 1.93551 25.9015H0.0495765C0.0413245 25.9027 0.0329126 25.9019 0.0250073 25.8993C0.017102 25.8968 0.00991871 25.8924 0.00402536 25.8866C-0.00186798 25.8808 -0.0063111 25.8738 -0.00895105 25.866C-0.011591 25.8582 -0.0123565 25.85 -0.0111869 25.8419L0.000498662 25.8465ZM0.556698 23.5398H1.76491C2.00548 23.5527 2.24367 23.4873 2.44263 23.3539C2.52596 23.2903 2.59228 23.2078 2.63584 23.1134C2.67941 23.019 2.69892 22.9156 2.69268 22.8122C2.69889 22.7078 2.67841 22.6036 2.6331 22.509C2.58779 22.4144 2.5191 22.3324 2.43328 22.2705C2.21629 22.1346 1.96108 22.0695 1.70415 22.0846H0.561373V23.5398H0.556698ZM2.93339 24.7241C2.93339 24.2192 2.60388 23.9667 1.94486 23.9667H0.554362V25.4861H1.94486C2.60388 25.4861 2.93339 25.2359 2.93339 24.7287V24.7241Z" fill="#1B5242"/>
<path d="M15.2915 21.6574C15.3336 21.6574 15.3546 21.6734 15.3546 21.701C15.3546 21.7285 15.3546 21.7171 15.3546 21.7194L13.665 24.4736V25.8507C13.665 25.892 13.6463 25.9104 13.6066 25.9104H13.1742C13.1322 25.9104 13.1111 25.892 13.1111 25.8507V24.4736L11.4238 21.7194C11.4238 21.7194 11.4238 21.7194 11.4238 21.701V21.6849C11.4294 21.6759 11.4373 21.6686 11.4468 21.6638C11.4563 21.6589 11.4669 21.6567 11.4776 21.6574H11.9309C11.9549 21.6564 11.9788 21.6616 12.0001 21.6725C12.0214 21.6834 12.0395 21.6995 12.0525 21.7194L13.3939 23.909L14.7353 21.7194C14.7487 21.6993 14.7671 21.6831 14.7889 21.6722C14.8106 21.6614 14.8348 21.6562 14.8592 21.6574H15.2915Z" fill="#1B5242"/>
<path d="M32.7759 25.8458V21.7145C32.7748 21.7063 32.7756 21.698 32.7782 21.6901C32.7808 21.6823 32.7852 21.6751 32.7911 21.6692C32.7969 21.6632 32.804 21.6586 32.8119 21.6557C32.8198 21.6529 32.8282 21.6518 32.8366 21.6525H34.2481C34.5382 21.6432 34.8271 21.6912 35.0979 21.7937C35.3686 21.8962 35.6156 22.0512 35.8241 22.2494C36.0326 22.4476 36.1984 22.6849 36.3117 22.9473C36.4249 23.2097 36.4833 23.4917 36.4833 23.7767C36.4833 24.0617 36.4249 24.3438 36.3117 24.6062C36.1984 24.8686 36.0326 25.1059 35.8241 25.3041C35.6156 25.5022 35.3686 25.6572 35.0979 25.7597C34.8271 25.8623 34.5382 25.9103 34.2481 25.9009H32.846C32.8375 25.9036 32.8285 25.9042 32.8197 25.9027C32.811 25.9011 32.8028 25.8974 32.7958 25.8919C32.7889 25.8865 32.7834 25.8794 32.7799 25.8714C32.7764 25.8633 32.775 25.8546 32.7759 25.8458ZM33.3321 25.4832H34.2668C34.4771 25.4918 34.6869 25.4577 34.8831 25.383C35.0793 25.3084 35.2578 25.1948 35.4073 25.0494C35.6915 24.6878 35.8457 24.2439 35.8457 23.787C35.8457 23.3302 35.6915 22.8863 35.4073 22.5247C35.2575 22.379 35.0787 22.2653 34.882 22.1906C34.6854 22.116 34.4751 22.082 34.2645 22.0909H33.3297V25.4855L33.3321 25.4832Z" fill="#1B5242"/>
<path d="M44.7324 25.8467V21.7153C44.7324 21.674 44.7511 21.6533 44.7932 21.6533H45.2325C45.2723 21.6533 45.291 21.674 45.291 21.7153V25.8467C45.291 25.888 45.2723 25.9063 45.2325 25.9063H44.7979C44.7511 25.9063 44.7324 25.888 44.7324 25.8467Z" fill="#1B5242"/>
<path d="M53.509 25.8465L55.1448 21.8414C55.1652 21.7857 55.2032 21.7378 55.2532 21.7048C55.3032 21.6718 55.3627 21.6553 55.4229 21.6578H55.6099C55.6701 21.6539 55.7299 21.6698 55.7799 21.7031C55.8298 21.7364 55.8671 21.785 55.8857 21.8414L57.5215 25.8465C57.5227 25.8557 57.5227 25.8649 57.5215 25.8741C57.5215 25.897 57.5028 25.9062 57.4608 25.9062H57.0331C57.0132 25.9068 56.9936 25.9013 56.9769 25.8907C56.9602 25.88 56.9472 25.8646 56.9396 25.8465L56.5073 24.8137H54.5279L54.0979 25.8465C54.0903 25.8646 54.0773 25.88 54.0606 25.8907C54.0439 25.9013 54.0243 25.9068 54.0044 25.9062H53.5604C53.5206 25.9062 53.502 25.9062 53.502 25.8741C53.502 25.8419 53.502 25.8603 53.502 25.8465H53.509ZM54.6774 24.3891H56.346L55.5141 22.3578L54.6798 24.3891H54.6774Z" fill="#1B5242"/>
<path d="M65.3301 24.7969C65.3301 24.7624 65.3511 24.7441 65.3932 24.7441H65.7811C65.7989 24.7441 65.8162 24.75 65.8302 24.7608C65.8442 24.7716 65.854 24.7868 65.8582 24.8037C66.0312 25.3087 66.4705 25.5635 67.1786 25.5635C67.4747 25.581 67.7696 25.5132 68.0269 25.3684C68.1148 25.3204 68.1882 25.2507 68.2399 25.1661C68.2916 25.0815 68.3197 24.985 68.3214 24.8864C68.3246 24.8015 68.3098 24.7169 68.278 24.6379C68.2462 24.5589 68.1982 24.4872 68.1368 24.4273C67.9693 24.2874 67.7695 24.1897 67.5549 24.1427L66.4729 23.8398C65.7733 23.6424 65.4236 23.2683 65.4236 22.7174C65.4215 22.5538 65.4608 22.3923 65.5379 22.2473C65.6149 22.1023 65.7274 21.9784 65.8652 21.8865C66.2142 21.656 66.6301 21.5432 67.0501 21.5652C67.4729 21.5458 67.8915 21.6548 68.2489 21.8774C68.5483 22.0779 68.7549 22.3864 68.8238 22.7358C68.8238 22.784 68.8098 22.8092 68.7584 22.8092H68.3681C68.3502 22.8094 68.3327 22.8033 68.319 22.7919C68.3053 22.7805 68.2962 22.7647 68.2933 22.7472C68.1181 22.24 67.7091 21.9875 67.0594 21.9875C66.779 21.9708 66.5 22.0389 66.2602 22.1826C66.1747 22.2329 66.1037 22.3038 66.0538 22.3885C66.0039 22.4732 65.9768 22.569 65.9751 22.6669C65.9712 22.7521 65.9859 22.8371 66.0181 22.9163C66.0503 22.9954 66.0994 23.0669 66.162 23.1259C66.3336 23.2624 66.534 23.3597 66.7486 23.4106L67.8306 23.7158C68.5271 23.9086 68.8753 24.2827 68.8753 24.8382C68.8773 25.0036 68.8368 25.1669 68.7575 25.3129C68.6783 25.4589 68.5628 25.583 68.4219 25.6736C68.05 25.9031 67.6148 26.0138 67.1763 25.9904C66.7344 26.0124 66.2958 25.9045 65.9167 25.6805C65.7563 25.5747 65.6162 25.4418 65.503 25.288C65.3937 25.1465 65.3331 24.9745 65.3301 24.7969Z" fill="#1B5242"/>
<path d="M77.2133 25.8463V21.7149C77.2123 21.707 77.2131 21.6988 77.2156 21.6912C77.2181 21.6835 77.2223 21.6765 77.2278 21.6706C77.2334 21.6647 77.2402 21.66 77.2478 21.657C77.2554 21.6539 77.2636 21.6526 77.2718 21.653H79.0642C79.4938 21.6257 79.9184 21.7557 80.2561 22.0179C80.5238 22.309 80.6719 22.6872 80.6719 23.0794C80.6719 23.4717 80.5238 23.8499 80.2561 24.141C79.9184 24.4031 79.4938 24.5331 79.0642 24.5059H77.7672V25.8417C77.7684 25.8498 77.7676 25.8581 77.765 25.8658C77.7623 25.8736 77.7579 25.8807 77.752 25.8864C77.7461 25.8922 77.7389 25.8966 77.731 25.8992C77.7231 25.9018 77.7147 25.9025 77.7064 25.9014H77.2718C77.232 25.9014 77.2133 25.8807 77.2133 25.8417V25.8463ZM77.7672 24.0882H79.0642C79.3437 24.1045 79.6188 24.015 79.8331 23.838C80.0156 23.6281 80.1159 23.3612 80.1159 23.0852C80.1159 22.8092 80.0156 22.5422 79.8331 22.3324C79.6179 22.1572 79.3432 22.0687 79.0642 22.0845H77.7672V24.0882Z" fill="#1B5242"/>
<path d="M88.405 25.8466L90.0408 21.8415C90.0608 21.7859 90.0983 21.7381 90.1479 21.7051C90.1976 21.672 90.2567 21.6555 90.3166 21.6578H90.5035C90.5641 21.6538 90.6242 21.6697 90.6746 21.7029C90.7249 21.7361 90.7626 21.7849 90.7816 21.8415L92.4175 25.8466C92.4193 25.8557 92.4193 25.865 92.4175 25.8741C92.4175 25.8971 92.3965 25.9063 92.3568 25.9063H91.9151C91.8949 25.9066 91.8751 25.9012 91.858 25.8906C91.841 25.88 91.8275 25.8647 91.8193 25.8466L91.3893 24.8137H89.4239L88.9915 25.8466C88.9842 25.8649 88.9713 25.8804 88.9545 25.8911C88.9378 25.9018 88.918 25.9071 88.898 25.9063H88.4657C88.426 25.9063 88.4073 25.9063 88.4073 25.8741C88.4073 25.842 88.3979 25.8603 88.405 25.8466ZM89.5734 24.3891H91.242L90.4054 22.3579L89.5734 24.3891Z" fill="#1B5242"/>
<path d="M100.643 25.8461V21.7148C100.642 21.7066 100.643 21.6983 100.645 21.6904C100.648 21.6826 100.652 21.6754 100.658 21.6695C100.664 21.6635 100.671 21.6589 100.679 21.656C100.687 21.6532 100.695 21.6521 100.704 21.6528H102.436C102.859 21.627 103.278 21.7489 103.618 21.9971C103.759 22.1146 103.871 22.2625 103.944 22.4293C104.018 22.5961 104.051 22.7773 104.041 22.9588C104.043 23.1019 104.015 23.2439 103.959 23.3761C103.903 23.5083 103.821 23.6279 103.716 23.7277C103.467 23.9583 103.148 24.1033 102.807 24.1408C102.92 24.1683 103.026 24.2191 103.118 24.29C103.191 24.3444 103.258 24.406 103.319 24.4736C103.359 24.5264 103.415 24.609 103.487 24.7192L104.228 25.8278C104.238 25.8422 104.243 25.8588 104.244 25.876C104.244 25.8921 104.221 25.9012 104.177 25.9012H103.669C103.651 25.8992 103.633 25.8927 103.618 25.8823C103.602 25.8719 103.589 25.8579 103.581 25.8416L102.838 24.7192C102.748 24.5733 102.621 24.4537 102.468 24.3729C102.316 24.2921 102.144 24.2532 101.971 24.2602H101.199V25.8393C101.2 25.8474 101.2 25.8556 101.197 25.8634C101.194 25.8712 101.19 25.8782 101.184 25.884C101.178 25.8898 101.171 25.8941 101.163 25.8967C101.155 25.8993 101.147 25.9001 101.139 25.8989H100.704C100.696 25.9001 100.687 25.8993 100.679 25.8967C100.671 25.8941 100.664 25.8898 100.658 25.884C100.652 25.8782 100.648 25.8712 100.645 25.8634C100.643 25.8556 100.642 25.8474 100.643 25.8393V25.8461ZM101.199 23.8447H102.436C102.71 23.8576 102.98 23.7765 103.2 23.6152C103.296 23.5356 103.372 23.435 103.422 23.3215C103.472 23.2079 103.494 23.0845 103.487 22.9611C103.494 22.8377 103.472 22.7144 103.422 22.6012C103.371 22.488 103.294 22.3879 103.197 22.3092C102.978 22.1483 102.709 22.0672 102.436 22.0797H101.199V23.8401V23.8447Z" fill="#1B5242"/>
<path d="M112.462 25.846V21.7147C112.461 21.7065 112.462 21.6981 112.464 21.6903C112.467 21.6825 112.471 21.6753 112.477 21.6693C112.483 21.6634 112.49 21.6588 112.498 21.6559C112.506 21.653 112.514 21.6519 112.523 21.6527H112.957C112.966 21.6519 112.974 21.653 112.982 21.6559C112.99 21.6588 112.997 21.6634 113.003 21.6693C113.009 21.6753 113.013 21.6825 113.016 21.6903C113.018 21.6981 113.019 21.7065 113.018 21.7147V23.5669H113.485C113.658 23.5718 113.828 23.532 113.98 23.4514C114.131 23.3708 114.258 23.2522 114.348 23.1078L115.283 21.7124C115.292 21.6959 115.305 21.6818 115.321 21.671C115.337 21.6603 115.355 21.6532 115.374 21.6504H115.878C115.946 21.6504 115.963 21.6756 115.93 21.7238L114.972 23.1675C114.738 23.5279 114.483 23.7298 114.229 23.7757C114.399 23.8151 114.559 23.8894 114.698 23.9939C114.837 24.0983 114.952 24.2305 115.035 24.3817L115.991 25.8254C116 25.8398 116.006 25.8564 116.007 25.8736C116.007 25.8896 115.986 25.8988 115.942 25.8988H115.437C115.417 25.8969 115.398 25.8905 115.382 25.8801C115.365 25.8698 115.351 25.8557 115.341 25.8391L114.406 24.4414C114.316 24.2965 114.189 24.1776 114.037 24.0969C113.885 24.0163 113.714 23.9767 113.542 23.9823H113.016V25.8322C113.017 25.8404 113.016 25.8486 113.013 25.8564C113.011 25.8641 113.006 25.8712 113.001 25.877C112.995 25.8828 112.987 25.8871 112.98 25.8897C112.972 25.8923 112.963 25.8931 112.955 25.8919H112.52C112.512 25.8931 112.504 25.8923 112.496 25.8897C112.488 25.8871 112.481 25.8828 112.475 25.877C112.469 25.8712 112.464 25.8641 112.462 25.8564C112.459 25.8486 112.458 25.8404 112.46 25.8322L112.462 25.846Z" fill="#1B5242"/>
</g>
<defs>
<clipPath id="clip0_5255_29671">
<rect width="116" height="26" fill="white"/>
</clipPath>
</defs>
</svg>
