<svg width="19" height="16" viewBox="0 0 19 16" fill="none" xmlns="http://www.w3.org/2000/svg">
<path fill-rule="evenodd" clip-rule="evenodd" d="M15.9355 0.697526C16.7084 0.697526 17.4109 1.00669 17.9204 1.51376L9.26447 7.80377L0.612305 1.51253C1.12182 1.00918 1.8243 0.696289 2.59726 0.696289L15.9355 0.697526ZM9.49806 9.2879C9.6947 9.2879 9.88762 9.2273 10.0558 9.10734L18.9876 2.61948L18.9879 2.6231C18.994 2.7109 19 2.79754 19 2.88538V12.4725C19 14.0332 17.7299 15.3034 16.1691 15.3034H2.83089C1.27012 15.3034 0 14.0332 0 12.4725V2.88538C0 2.79754 0.00601726 2.71091 0.0121159 2.6231L0.0123674 2.61948L8.94029 9.10734C9.10601 9.2273 9.30141 9.2879 9.49806 9.2879Z" fill="#A97241"/>
</svg>
