<svg width="18" height="18" viewBox="0 0 18 18" fill="none" xmlns="http://www.w3.org/2000/svg">
<path fill-rule="evenodd" clip-rule="evenodd" d="M16.5148 8.58389L17.9993 8.28791C17.1634 4.08852 13.9106 0.834884 9.71044 -0.000976562L9.41446 1.48358C13.0114 2.19937 15.798 4.98606 16.5138 8.58294L16.5148 8.58389ZM13.5398 9.17815L13.5406 9.17799L13.5408 9.17919L13.5398 9.17815ZM13.5406 9.17799L15.0234 8.88123C14.4258 5.89411 12.1091 3.57752 9.12298 2.98083L8.82606 4.46444C11.2123 4.94188 13.0626 6.79183 13.5406 9.17799ZM11.6685 17.7977C9.28581 17.0942 7.6291 16.2395 4.69403 13.3044L4.69379 13.3041C1.75884 10.3693 0.904023 8.71249 0.200526 6.32962C-0.313868 4.57463 0.177844 2.6759 1.48651 1.36723L1.97065 0.875545C2.59095 0.262823 3.46844 0.0358841 4.27029 0.293081C5.74533 0.769713 6.73628 1.76074 7.21287 3.2434C7.47006 4.03012 7.24313 4.9152 6.62283 5.5355L5.79072 6.3676C5.32171 6.83661 5.24607 7.58552 5.60917 8.10747C6.78949 9.78669 8.22665 11.2241 9.89086 12.3739C10.4204 12.7521 11.1617 12.6765 11.6307 12.2075L12.4628 11.3754C13.0831 10.7551 13.9682 10.5281 14.7625 10.7929C16.2375 11.2618 17.2285 12.2528 17.7051 13.7355C17.9698 14.5373 17.7202 15.43 17.0394 16.1108L16.6309 16.5117C15.6701 17.48 14.3766 18.0019 13.0604 18.0019C12.5989 18.0019 12.1299 17.9338 11.6685 17.7977Z" fill="#A97241"/>
</svg>
