<svg width="18" height="14" viewBox="0 0 18 14" fill="none" xmlns="http://www.w3.org/2000/svg">
<path fill-rule="evenodd" clip-rule="evenodd" d="M16.7143 3.14272H1.28571C0.944722 3.14272 0.617694 3.00726 0.376576 2.76614C0.135458 2.52502 0 2.198 0 1.857C0 1.51601 0.135458 1.18898 0.376576 0.947866C0.617694 0.706748 0.944722 0.571289 1.28571 0.571289H16.7143C17.0553 0.571289 17.3823 0.706748 17.6234 0.947866C17.8645 1.18898 18 1.51601 18 1.857C18 2.198 17.8645 2.52502 17.6234 2.76614C17.3823 3.00726 17.0553 3.14272 16.7143 3.14272ZM16.7143 8.2869H1.28571C0.944722 8.2869 0.617694 8.15145 0.376576 7.91033C0.135458 7.66921 0 7.34218 0 7.00119C0 6.6602 0.135458 6.33317 0.376576 6.09205C0.617694 5.85093 0.944722 5.71548 1.28571 5.71548H16.7143C17.0553 5.71548 17.3823 5.85093 17.6234 6.09205C17.8645 6.33317 18 6.6602 18 7.00119C18 7.34218 17.8645 7.66921 17.6234 7.91033C17.3823 8.15145 17.0553 8.2869 16.7143 8.2869ZM1.28571 13.428H9C9.34099 13.428 9.66802 13.2925 9.90914 13.0514C10.1503 12.8103 10.2857 12.4833 10.2857 12.1423C10.2857 11.8013 10.1503 11.4743 9.90914 11.2331C9.66802 10.992 9.34099 10.8566 9 10.8566H1.28571C0.944722 10.8566 0.617694 10.992 0.376576 11.2331C0.135458 11.4743 0 11.8013 0 12.1423C0 12.4833 0.135458 12.8103 0.376576 13.0514C0.617694 13.2925 0.944722 13.428 1.28571 13.428Z" fill="#A97241"/>
</svg>
