<svg width="26" height="18" viewBox="0 0 26 18" fill="none" xmlns="http://www.w3.org/2000/svg">
<path fill-rule="evenodd" clip-rule="evenodd" d="M6.06471 7.69993C7.97929 7.69993 9.53137 6.14785 9.53137 4.23326C9.53137 2.31868 7.97929 0.766602 6.06471 0.766602C4.15012 0.766602 2.59804 2.31868 2.59804 4.23326C2.59804 6.14785 4.15012 7.69993 6.06471 7.69993ZM7.79804 8.56659H4.33137C3.76231 8.56659 3.19883 8.67868 2.67308 8.89645C2.14734 9.11422 1.66964 9.43341 1.26725 9.83579C0.454593 10.6485 -0.00195312 11.7506 -0.00195312 12.8999V16.3666C-0.00195312 16.5964 0.089356 16.8169 0.251887 16.9794C0.414419 17.1419 0.634858 17.2332 0.864712 17.2332H11.2647C11.4946 17.2332 11.715 17.1419 11.8775 16.9794C12.0401 16.8169 12.1314 16.5964 12.1314 16.3666V12.8999C12.1314 11.7506 11.6748 10.6485 10.8622 9.83579C10.0495 9.02314 8.94731 8.56659 7.79804 8.56659ZM14.7341 7.69993H25.1341C25.3639 7.69993 25.5844 7.60862 25.7469 7.44609C25.9094 7.28355 26.0007 7.06311 26.0007 6.83326C26.0007 6.60341 25.9094 6.38297 25.7469 6.22044C25.5844 6.0579 25.3639 5.9666 25.1341 5.9666H14.7341C14.5042 5.9666 14.2838 6.0579 14.1212 6.22044C13.9587 6.38297 13.8674 6.60341 13.8674 6.83326C13.8674 7.06311 13.9587 7.28355 14.1212 7.44609C14.2838 7.60862 14.5042 7.69993 14.7341 7.69993ZM25.1341 11.1662H14.7341C14.5042 11.1662 14.2838 11.0749 14.1212 10.9124C13.9587 10.7499 13.8674 10.5294 13.8674 10.2996C13.8674 10.0697 13.9587 9.84929 14.1212 9.68676C14.2838 9.52423 14.5042 9.43292 14.7341 9.43292H25.1341C25.3639 9.43292 25.5844 9.52423 25.7469 9.68676C25.9094 9.84929 26.0007 10.0697 26.0007 10.2996C26.0007 10.5294 25.9094 10.7499 25.7469 10.9124C25.5844 11.0749 25.3639 11.1662 25.1341 11.1662ZM14.7341 14.6336H19.9341C20.1639 14.6336 20.3844 14.5423 20.5469 14.3797C20.7094 14.2172 20.8007 13.9968 20.8007 13.7669C20.8007 13.5371 20.7094 13.3166 20.5469 13.1541C20.3844 12.9916 20.1639 12.9003 19.9341 12.9003H14.7341C14.5042 12.9003 14.2838 12.9916 14.1212 13.1541C13.9587 13.3166 13.8674 13.5371 13.8674 13.7669C13.8674 13.9968 13.9587 14.2172 14.1212 14.3797C14.2838 14.5423 14.5042 14.6336 14.7341 14.6336Z" fill="#A97241"/>
</svg>
